<svg version="1.1" id="Layer_1" xmlns="http://www.w3.org/2000/svg" xmlns:xlink="http://www.w3.org/1999/xlink" x="0px" y="0px"
	 width="100%" viewBox="0 0 500 500" enable-background="new 0 0 500 500" xml:space="preserve">
<path fill="#0D9488" opacity="1.000000" stroke="none" 
	d="
M247.000000,501.000000 
	C164.666687,501.000000 82.833374,501.000000 1.000044,501.000000 
	C1.000029,334.333405 1.000029,167.666779 1.000015,1.000133 
	C167.666565,1.000089 334.333130,1.000089 500.999756,1.000044 
	C500.999847,167.666519 500.999847,334.333038 500.999939,500.999786 
	C416.500000,501.000000 332.000000,501.000000 247.000000,501.000000 
M328.758575,257.623688 
	C328.805267,257.404114 328.851959,257.184509 329.594360,256.878174 
	C347.732941,246.175217 350.662598,222.649353 335.146210,209.267212 
	C334.445984,208.806046 333.745728,208.344864 332.658112,207.302948 
	C327.863831,205.502319 325.903198,202.244125 326.601959,197.006500 
	C327.061920,193.558853 325.860596,190.448792 322.327789,188.734955 
	C317.847321,186.561340 313.489471,184.123199 308.950104,182.085754 
	C303.753937,179.753525 299.083832,182.662338 298.806091,188.363419 
	C298.595551,192.685242 298.740387,197.024673 298.737793,201.356262 
	C298.732178,210.717575 293.413147,216.067322 284.101654,216.068085 
	C282.935425,216.068192 281.769165,216.065231 280.602936,216.069656 
	C273.671204,216.095947 271.723175,217.568863 270.210358,224.164856 
	C268.321472,232.400558 266.299835,240.615707 264.782837,248.921448 
	C264.249176,251.843262 265.036438,255.006302 264.258240,258.149475 
	C255.148300,258.156586 246.038376,258.163696 237.014618,257.332336 
	C237.205475,254.757904 237.933762,252.084503 237.481567,249.628464 
	C236.343140,243.445221 234.472000,237.399551 233.253021,231.227936 
	C229.906525,214.285080 229.543915,216.064667 214.730301,216.039780 
	C210.096649,216.031982 203.387878,209.367157 203.316147,204.623001 
	C203.235641,199.298203 203.425888,193.966492 203.240005,188.646820 
	C203.029999,182.636597 198.341995,179.695328 192.899399,182.099350 
	C189.561737,183.573639 186.472610,185.671021 183.060425,186.902878 
	C176.916214,189.121017 174.478989,193.310196 175.281219,199.602356 
	C175.660507,202.577423 174.611343,204.278931 171.827011,205.864395 
	C152.327850,216.967499 151.661774,243.404739 170.400299,255.823929 
	C171.400925,256.487122 172.202026,257.451355 172.149796,258.187195 
	C133.341156,258.182037 94.532516,258.176849 55.723881,258.171967 
	C55.057644,258.171875 54.213085,257.916504 53.760296,258.228333 
	C52.629715,259.006958 51.677082,260.043945 50.653034,260.977264 
	C50.987110,261.285736 51.321186,261.594177 51.655266,261.902649 
	C184.671661,261.902649 317.688049,261.902649 450.624390,261.902649 
	C451.803833,258.313110 449.817413,258.146912 447.337067,258.151031 
	C407.863647,258.216919 368.390228,258.243103 328.758575,257.623688 
M223.885696,291.704285 
	C223.513901,288.454163 225.351730,284.121521 220.574387,282.839752 
	C216.166275,281.657043 215.169846,285.944000 213.410660,288.492798 
	C207.397888,297.204468 201.588776,306.056671 195.450607,315.230988 
	C188.914139,305.341644 182.820023,295.813721 176.328796,286.564545 
	C175.055099,284.749664 172.245590,284.012634 170.144440,282.778473 
	C169.115173,284.975800 167.232529,287.158295 167.194168,289.372772 
	C166.931641,304.524414 166.999084,319.683197 167.101471,334.838684 
	C167.123291,338.070251 165.759552,342.883698 171.145370,342.808411 
	C176.564148,342.732635 174.929703,337.865021 174.970566,334.693909 
	C175.119370,323.143585 175.029343,311.590149 175.029343,298.705658 
	C176.765152,301.193085 177.723587,302.480621 178.592377,303.826080 
	C182.744843,310.256805 186.788956,316.759430 191.040329,323.123779 
	C193.737579,327.161621 196.374649,327.135040 199.219910,323.192291 
	C201.165924,320.495605 202.916138,317.657623 204.753723,314.882690 
	C207.894165,310.140350 211.034485,305.397949 214.174850,300.655548 
	C215.086105,302.875397 215.085815,304.675812 215.086166,306.476227 
	C215.088165,316.968964 215.086304,327.461731 215.095001,337.954468 
	C215.097397,340.839111 216.253754,342.892517 219.391144,342.953400 
	C222.531647,343.014343 223.756714,341.001190 223.865784,338.121002 
	C223.909851,336.956665 223.884979,335.789612 223.885056,334.623779 
	C223.886002,320.633453 223.885696,306.643097 223.885696,291.704285 
M332.055725,319.499817 
	C332.056000,325.157532 332.204071,330.820282 332.010193,336.471344 
	C331.852386,341.070862 333.525299,343.252808 338.383270,343.072205 
	C344.697876,342.837433 351.028412,343.070312 357.350922,342.999573 
	C369.009430,342.869171 377.845001,337.105682 380.757690,325.803955 
	C382.526428,318.940948 383.010712,311.247253 381.935394,304.255371 
	C379.725677,289.887360 370.358948,282.709412 355.966370,282.568237 
	C349.976440,282.509491 343.984344,282.629059 337.995300,282.535065 
	C333.809296,282.469421 331.961731,284.286560 332.016693,288.547882 
	C332.145416,298.530426 332.056519,308.515747 332.055725,319.499817 
M122.244858,315.499878 
	C122.247559,322.830444 122.236214,330.161041 122.259369,337.491547 
	C122.269653,340.748260 123.458504,343.013245 127.169441,343.011993 
	C136.832413,343.008759 146.502426,343.193451 156.151352,342.824615 
	C157.737183,342.764008 159.230301,340.278107 160.766266,338.913086 
	C159.124664,337.613281 157.603729,335.436615 155.817108,335.190826 
	C151.729141,334.628357 147.511337,335.008789 143.346252,335.007751 
	C139.266998,335.006744 135.187744,335.007507 131.274750,335.007507 
	C131.274750,328.264069 131.274750,322.326019 131.274750,316.016815 
	C138.005447,316.016815 144.468643,315.984070 150.931244,316.031921 
	C153.771133,316.052917 156.709686,315.869537 156.775528,312.262848 
	C156.845810,308.414581 153.843658,308.020386 150.773468,308.041656 
	C144.325790,308.086334 137.877594,308.055237 131.373535,308.055237 
	C131.373535,301.998718 131.373535,296.456482 131.373535,290.697449 
	C139.403336,290.697449 147.061554,290.699890 154.719772,290.696259 
	C157.755295,290.694824 160.815811,290.246582 160.674576,286.387909 
	C160.546234,282.880615 157.630569,282.538025 154.777924,282.545593 
	C146.114609,282.568604 137.448730,282.677094 128.788803,282.504150 
	C124.112465,282.410797 122.109367,284.289124 122.200645,289.010406 
	C122.364861,297.503967 122.245667,306.003052 122.244858,315.499878 
M274.926910,303.181213 
	C275.092072,289.494995 268.282471,282.596527 254.557999,282.560730 
	C249.727463,282.548096 244.893265,282.677063 240.067352,282.527588 
	C235.625061,282.389923 233.804184,284.226440 233.847855,288.767334 
	C234.001602,304.756683 233.909882,320.748413 233.905472,336.739258 
	C233.904663,339.651733 233.769211,342.902802 237.834305,342.896759 
	C241.751541,342.890930 241.959946,339.802521 241.946732,336.799133 
	C241.922180,331.214996 241.939682,325.630676 241.939682,319.909943 
	C246.723175,319.909943 250.716675,319.914001 254.710159,319.909149 
	C266.460602,319.894928 271.918732,315.590698 274.926910,303.181213 
M293.406189,285.820221 
	C277.579071,295.610748 272.937195,315.964722 283.116577,330.938629 
	C291.698547,343.562714 310.373688,347.919189 323.512970,340.070709 
	C324.963928,339.203979 326.331268,336.249023 325.956146,334.691650 
	C325.242981,331.730774 322.552979,331.525513 319.887787,332.817780 
	C318.694550,333.396332 317.474304,333.939178 316.223755,334.376526 
	C303.995819,338.652771 291.122070,332.421478 287.997803,320.484650 
	C285.573792,311.223175 286.531738,302.348358 294.048645,295.685486 
	C301.533051,289.051392 310.270996,288.758392 319.222717,292.804626 
	C321.860168,293.996796 324.466431,294.795349 326.011993,291.496674 
	C327.667694,287.962891 325.231964,286.333344 322.460541,285.069305 
	C312.935547,280.724915 303.466919,280.924286 293.406189,285.820221 
M277.003723,182.921997 
	C277.673920,177.432953 277.414429,172.458908 271.566803,171.993912 
	C271.343170,168.227631 272.039978,164.912292 270.826355,162.599411 
	C268.150452,157.499741 263.576691,157.047897 258.275818,160.898468 
	C257.681030,155.817764 255.807236,153.465485 251.203445,153.203064 
	C245.930832,152.902527 243.807755,155.688812 242.696518,160.466171 
	C238.649536,158.286697 235.479218,157.438980 231.691086,160.952591 
	C227.514481,164.826492 230.022522,168.344528 230.234772,171.716125 
	C227.804306,173.597839 225.233856,175.598099 224.528046,178.120178 
	C223.050598,183.399490 225.513580,187.044037 231.806534,187.668030 
	C228.907578,192.164749 228.467606,195.376999 232.152420,198.971451 
	C235.807327,202.536743 238.908997,201.224121 242.682281,199.118103 
	C244.003006,203.279999 245.451340,206.147324 250.709396,206.361252 
	C256.454437,206.594986 257.226044,202.551727 259.175385,198.711288 
	C262.623260,201.460739 265.445099,202.321625 268.903809,199.356506 
	C273.046265,195.805252 273.061096,192.248367 270.306152,188.355301 
	C272.697601,186.669006 274.768524,185.208725 277.003723,182.921997 
M187.202438,165.912491 
	C187.850510,167.248016 188.323685,168.709625 189.178909,169.895798 
	C191.918091,173.695038 195.841858,174.825165 200.194992,173.783859 
	C204.435791,172.769409 207.049515,169.689178 207.833725,165.479370 
	C208.633072,161.188217 207.152420,156.960052 203.265717,155.352737 
	C200.105759,154.045914 195.765579,153.872665 192.514648,154.932449 
	C188.247513,156.323517 186.770325,160.566177 187.202438,165.912491 
M309.863861,172.678375 
	C313.765839,169.973602 316.225006,166.073990 314.540985,161.651627 
	C313.398438,158.651321 310.466553,155.520248 307.543518,154.200531 
	C303.163727,152.223114 298.687500,153.708603 295.820435,158.018143 
	C293.132782,162.058029 293.358307,166.161987 296.216400,170.037827 
	C299.191711,174.072617 303.268738,174.961151 309.863861,172.678375 
z"/>
<path fill="#EFF5F4" opacity="1.000000" stroke="none" 
	d="
M173.096008,258.275452 
	C172.202026,257.451355 171.400925,256.487122 170.400299,255.823929 
	C151.661774,243.404739 152.327850,216.967499 171.827011,205.864395 
	C174.611343,204.278931 175.660507,202.577423 175.281219,199.602356 
	C174.478989,193.310196 176.916214,189.121017 183.060425,186.902878 
	C186.472610,185.671021 189.561737,183.573639 192.899399,182.099350 
	C198.341995,179.695328 203.029999,182.636597 203.240005,188.646820 
	C203.425888,193.966492 203.235641,199.298203 203.316147,204.623001 
	C203.387878,209.367157 210.096649,216.031982 214.730301,216.039780 
	C229.543915,216.064667 229.906525,214.285080 233.253021,231.227936 
	C234.472000,237.399551 236.343140,243.445221 237.481567,249.628464 
	C237.933762,252.084503 237.205475,254.757904 236.659866,257.890564 
	C232.823074,258.280396 229.341019,258.111969 225.707489,257.616577 
	C225.030807,255.737183 224.372971,254.215561 224.003830,252.626846 
	C222.549927,246.369400 221.260941,240.072906 219.750549,233.829681 
	C219.205124,231.575165 218.751877,228.590118 215.027618,230.702896 
	C214.784103,243.230759 208.562439,251.953690 197.723877,258.175812 
	C192.700882,258.260101 187.972702,258.051788 183.243103,258.011505 
	C179.861740,257.982727 176.478439,258.179352 173.096008,258.275452 
M207.134201,225.630493 
	C204.302856,216.158646 196.967270,209.792877 189.236191,210.420425 
	C189.236191,213.537659 189.294266,216.686447 189.222488,219.832291 
	C189.116623,224.472382 186.526596,227.534607 182.675873,227.711029 
	C178.851517,227.886230 175.783813,224.948517 175.379791,220.412094 
	C175.153473,217.871078 175.339050,215.293365 175.339050,212.345871 
	C165.024597,218.134323 161.213196,229.578415 165.569199,239.801407 
	C169.941742,250.063217 181.304138,255.479797 191.910919,252.358780 
	C203.282211,249.012817 209.532303,238.550583 207.134201,225.630493 
z"/>
<path fill="#F9F9F9" opacity="1.000000" stroke="none" 
	d="
M265.220520,258.059204 
	C265.036438,255.006302 264.249176,251.843262 264.782837,248.921448 
	C266.299835,240.615707 268.321472,232.400558 270.210358,224.164856 
	C271.723175,217.568863 273.671204,216.095947 280.602936,216.069656 
	C281.769165,216.065231 282.935425,216.068192 284.101654,216.068085 
	C293.413147,216.067322 298.732178,210.717575 298.737793,201.356262 
	C298.740387,197.024673 298.595551,192.685242 298.806091,188.363419 
	C299.083832,182.662338 303.753937,179.753525 308.950104,182.085754 
	C313.489471,184.123199 317.847321,186.561340 322.327789,188.734955 
	C325.860596,190.448792 327.061920,193.558853 326.601959,197.006500 
	C325.903198,202.244125 327.863831,205.502319 332.976562,207.902496 
	C334.014374,208.944977 334.733734,209.387909 335.453125,209.830841 
	C350.662598,222.649353 347.732941,246.175217 328.935699,256.977325 
	C327.492615,257.391754 326.708160,257.707031 325.460144,258.018677 
	C318.701691,258.022614 312.406769,258.030212 305.804047,258.050598 
	C305.291809,258.083649 305.087402,258.103882 304.661316,258.101166 
	C304.439575,258.078247 304.000671,258.000153 303.820618,257.710907 
	C292.535736,251.782318 287.418671,242.358322 286.197815,229.752090 
	C284.653473,230.471970 283.053864,231.338531 282.764923,232.524445 
	C280.676025,241.097900 278.852173,249.735916 276.614746,258.446533 
	C272.596924,258.379425 268.908722,258.219330 265.220520,258.059204 
M326.669434,219.672180 
	C325.605438,225.375854 323.071106,228.010712 319.021454,227.623505 
	C314.891174,227.228607 312.829651,224.216385 312.791870,218.483383 
	C312.773468,215.687057 312.788696,212.890503 312.788696,210.088943 
	C303.367340,210.313217 294.788666,219.239395 294.041412,229.132156 
	C293.168823,240.684418 301.153503,251.140366 312.238922,252.961807 
	C323.738861,254.851364 334.471039,248.038620 337.476746,236.804306 
	C340.220306,226.549698 334.459808,214.716248 326.675995,212.825012 
	C326.675995,214.877151 326.675995,216.857147 326.669434,219.672180 
z"/>
<path fill="#F7FCFB" opacity="1.000000" stroke="none" 
	d="
M223.885712,292.178528 
	C223.885696,306.643097 223.886002,320.633453 223.885056,334.623779 
	C223.884979,335.789612 223.909851,336.956665 223.865784,338.121002 
	C223.756714,341.001190 222.531647,343.014343 219.391144,342.953400 
	C216.253754,342.892517 215.097397,340.839111 215.095001,337.954468 
	C215.086304,327.461731 215.088165,316.968964 215.086166,306.476227 
	C215.085815,304.675812 215.086105,302.875397 214.174850,300.655548 
	C211.034485,305.397949 207.894165,310.140350 204.753723,314.882690 
	C202.916138,317.657623 201.165924,320.495605 199.219910,323.192291 
	C196.374649,327.135040 193.737579,327.161621 191.040329,323.123779 
	C186.788956,316.759430 182.744843,310.256805 178.592377,303.826080 
	C177.723587,302.480621 176.765152,301.193085 175.029343,298.705658 
	C175.029343,311.590149 175.119370,323.143585 174.970566,334.693909 
	C174.929703,337.865021 176.564148,342.732635 171.145370,342.808411 
	C165.759552,342.883698 167.123291,338.070251 167.101471,334.838684 
	C166.999084,319.683197 166.931641,304.524414 167.194168,289.372772 
	C167.232529,287.158295 169.115173,284.975800 170.144440,282.778473 
	C172.245590,284.012634 175.055099,284.749664 176.328796,286.564545 
	C182.820023,295.813721 188.914139,305.341644 195.450607,315.230988 
	C201.588776,306.056671 207.397888,297.204468 213.410660,288.492798 
	C215.169846,285.944000 216.166275,281.657043 220.574387,282.839752 
	C225.351730,284.121521 223.513901,288.454163 223.885712,292.178528 
z"/>
<path fill="#FFFFFF" opacity="1.000000" stroke="none" 
	d="
M304.000671,258.000122 
	C304.000671,258.000153 304.439575,258.078247 304.807037,258.190277 
	C305.486969,258.214142 305.799408,258.125977 306.111877,258.037811 
	C312.406769,258.030212 318.701691,258.022614 325.675385,258.200958 
	C327.208374,258.350708 328.062592,258.314514 328.916779,258.278351 
	C368.390228,258.243103 407.863647,258.216919 447.337067,258.151031 
	C449.817413,258.146912 451.803833,258.313110 450.624390,261.902649 
	C317.688049,261.902649 184.671661,261.902649 51.655266,261.902649 
	C51.321186,261.594177 50.987110,261.285736 50.653034,260.977264 
	C51.677082,260.043945 52.629715,259.006958 53.760296,258.228333 
	C54.213085,257.916504 55.057644,258.171875 55.723881,258.171967 
	C94.532516,258.176849 133.341156,258.182037 172.622894,258.231323 
	C176.478439,258.179352 179.861740,257.982727 183.243103,258.011505 
	C187.972702,258.051788 192.700882,258.260101 198.188156,258.236633 
	C207.917435,258.032349 216.888199,257.987915 225.858978,257.943542 
	C229.341019,258.111969 232.823074,258.280396 236.616776,258.309814 
	C246.038376,258.163696 255.148300,258.156586 264.739380,258.104370 
	C268.908722,258.219330 272.596924,258.379425 277.082367,258.376434 
	C286.586639,258.142273 295.293640,258.071198 304.000671,258.000122 
z"/>
<path fill="#F7FCFB" opacity="1.000000" stroke="none" 
	d="
M332.055725,318.999878 
	C332.056519,308.515747 332.145416,298.530426 332.016693,288.547882 
	C331.961731,284.286560 333.809296,282.469421 337.995300,282.535065 
	C343.984344,282.629059 349.976440,282.509491 355.966370,282.568237 
	C370.358948,282.709412 379.725677,289.887360 381.935394,304.255371 
	C383.010712,311.247253 382.526428,318.940948 380.757690,325.803955 
	C377.845001,337.105682 369.009430,342.869171 357.350922,342.999573 
	C351.028412,343.070312 344.697876,342.837433 338.383270,343.072205 
	C333.525299,343.252808 331.852386,341.070862 332.010193,336.471344 
	C332.204071,330.820282 332.056000,325.157532 332.055725,318.999878 
M342.621277,290.739990 
	C342.038849,291.383331 340.952576,292.023132 340.948059,292.670502 
	C340.850555,306.615753 340.873962,320.561859 340.873962,335.010468 
	C345.744415,335.010468 350.196259,335.022675 354.648010,335.008057 
	C365.714752,334.971741 371.425323,330.654907 373.364716,319.730530 
	C374.187469,315.095917 374.105469,310.038025 373.202850,305.412933 
	C371.145782,294.872314 365.721588,290.804779 355.093048,290.703674 
	C351.262756,290.667236 347.431763,290.702423 342.621277,290.739990 
z"/>
<path fill="#F6FBFB" opacity="1.000000" stroke="none" 
	d="
M122.244865,314.999847 
	C122.245667,306.003052 122.364861,297.503967 122.200645,289.010406 
	C122.109367,284.289124 124.112465,282.410797 128.788803,282.504150 
	C137.448730,282.677094 146.114609,282.568604 154.777924,282.545593 
	C157.630569,282.538025 160.546234,282.880615 160.674576,286.387909 
	C160.815811,290.246582 157.755295,290.694824 154.719772,290.696259 
	C147.061554,290.699890 139.403336,290.697449 131.373535,290.697449 
	C131.373535,296.456482 131.373535,301.998718 131.373535,308.055237 
	C137.877594,308.055237 144.325790,308.086334 150.773468,308.041656 
	C153.843658,308.020386 156.845810,308.414581 156.775528,312.262848 
	C156.709686,315.869537 153.771133,316.052917 150.931244,316.031921 
	C144.468643,315.984070 138.005447,316.016815 131.274750,316.016815 
	C131.274750,322.326019 131.274750,328.264069 131.274750,335.007507 
	C135.187744,335.007507 139.266998,335.006744 143.346252,335.007751 
	C147.511337,335.008789 151.729141,334.628357 155.817108,335.190826 
	C157.603729,335.436615 159.124664,337.613281 160.766266,338.913086 
	C159.230301,340.278107 157.737183,342.764008 156.151352,342.824615 
	C146.502426,343.193451 136.832413,343.008759 127.169441,343.011993 
	C123.458504,343.013245 122.269653,340.748260 122.259369,337.491547 
	C122.236214,330.161041 122.247559,322.830444 122.244865,314.999847 
z"/>
<path fill="#F9FCFC" opacity="1.000000" stroke="none" 
	d="
M274.889160,303.606506 
	C271.918732,315.590698 266.460602,319.894928 254.710159,319.909149 
	C250.716675,319.914001 246.723175,319.909943 241.939682,319.909943 
	C241.939682,325.630676 241.922180,331.214996 241.946732,336.799133 
	C241.959946,339.802521 241.751541,342.890930 237.834305,342.896759 
	C233.769211,342.902802 233.904663,339.651733 233.905472,336.739258 
	C233.909882,320.748413 234.001602,304.756683 233.847855,288.767334 
	C233.804184,284.226440 235.625061,282.389923 240.067352,282.527588 
	C244.893265,282.677063 249.727463,282.548096 254.557999,282.560730 
	C268.282471,282.596527 275.092072,289.494995 274.889160,303.606506 
M264.402832,294.123138 
	C262.785675,293.046753 261.223633,291.156036 259.541290,291.042114 
	C253.818573,290.654572 248.053406,290.893951 242.228653,290.893951 
	C242.228653,298.081390 242.228653,304.810883 242.228653,311.939117 
	C246.307968,311.939117 250.102631,311.940918 253.897293,311.938782 
	C264.900116,311.932648 269.324890,304.993500 264.402832,294.123138 
z"/>
<path fill="#F7FCFB" opacity="1.000000" stroke="none" 
	d="
M293.731567,285.631805 
	C303.466919,280.924286 312.935547,280.724915 322.460541,285.069305 
	C325.231964,286.333344 327.667694,287.962891 326.011993,291.496674 
	C324.466431,294.795349 321.860168,293.996796 319.222717,292.804626 
	C310.270996,288.758392 301.533051,289.051392 294.048645,295.685486 
	C286.531738,302.348358 285.573792,311.223175 287.997803,320.484650 
	C291.122070,332.421478 303.995819,338.652771 316.223755,334.376526 
	C317.474304,333.939178 318.694550,333.396332 319.887787,332.817780 
	C322.552979,331.525513 325.242981,331.730774 325.956146,334.691650 
	C326.331268,336.249023 324.963928,339.203979 323.512970,340.070709 
	C310.373688,347.919189 291.698547,343.562714 283.116577,330.938629 
	C272.937195,315.964722 277.579071,295.610748 293.731567,285.631805 
z"/>
<path fill="#E3F0EF" opacity="1.000000" stroke="none" 
	d="
M276.921570,183.335236 
	C274.768524,185.208725 272.697601,186.669006 270.306152,188.355301 
	C273.061096,192.248367 273.046265,195.805252 268.903809,199.356506 
	C265.445099,202.321625 262.623260,201.460739 259.175385,198.711288 
	C257.226044,202.551727 256.454437,206.594986 250.709396,206.361252 
	C245.451340,206.147324 244.003006,203.279999 242.682281,199.118103 
	C238.908997,201.224121 235.807327,202.536743 232.152420,198.971451 
	C228.467606,195.376999 228.907578,192.164749 231.806534,187.668030 
	C225.513580,187.044037 223.050598,183.399490 224.528046,178.120178 
	C225.233856,175.598099 227.804306,173.597839 230.234772,171.716125 
	C230.022522,168.344528 227.514481,164.826492 231.691086,160.952591 
	C235.479218,157.438980 238.649536,158.286697 242.696518,160.466171 
	C243.807755,155.688812 245.930832,152.902527 251.203445,153.203064 
	C255.807236,153.465485 257.681030,155.817764 258.275818,160.898468 
	C263.576691,157.047897 268.150452,157.499741 270.826355,162.599411 
	C272.039978,164.912292 271.343170,168.227631 271.566803,171.993912 
	C277.414429,172.458908 277.673920,177.432953 276.921570,183.335236 
M247.324219,157.342041 
	C245.371658,163.840256 244.605789,164.113358 238.059250,162.107132 
	C236.929321,161.760834 234.872467,162.716690 234.009537,163.725845 
	C233.211334,164.659286 232.848816,166.715988 233.320297,167.852402 
	C235.200424,172.384262 234.501007,174.050797 230.026154,176.128387 
	C228.803711,176.695923 227.543579,178.734879 227.593292,180.049713 
	C227.642197,181.343658 229.074203,183.179199 230.348938,183.722855 
	C234.357727,185.432556 235.237320,187.573776 233.628174,191.675659 
	C233.131516,192.941742 233.504715,195.241180 234.405289,196.169708 
	C235.315460,197.108170 237.623077,197.599442 238.883057,197.126495 
	C243.316635,195.462326 245.116241,196.175720 246.983017,200.231674 
	C247.588806,201.547897 249.636749,202.852386 251.085617,202.923157 
	C252.253983,202.980240 254.091599,201.415451 254.623749,200.147064 
	C256.201630,196.386063 258.490143,195.390244 262.240784,196.753693 
	C263.672516,197.274155 266.165222,197.067444 267.107819,196.125137 
	C268.049347,195.183929 268.253174,192.691605 267.733368,191.259186 
	C266.353333,187.456238 267.325714,185.235092 271.135254,183.649841 
	C272.402832,183.122391 273.963409,181.272415 273.905182,180.100830 
	C273.833130,178.650040 272.527313,176.609619 271.208527,175.994507 
	C267.353760,174.196548 266.391541,172.099823 267.764526,168.301178 
	C268.283112,166.866425 268.066833,164.369537 267.119995,163.425552 
	C266.172302,162.480682 263.534088,162.164322 262.267792,162.809952 
	C258.735382,164.611038 255.811386,163.394211 255.060074,160.401550 
	C253.900986,155.784683 251.350296,156.050308 247.324219,157.342041 
z"/>
<path fill="#F4F7F7" opacity="1.000000" stroke="none" 
	d="
M187.143204,165.515366 
	C186.770325,160.566177 188.247513,156.323517 192.514648,154.932449 
	C195.765579,153.872665 200.105759,154.045914 203.265717,155.352737 
	C207.152420,156.960052 208.633072,161.188217 207.833725,165.479370 
	C207.049515,169.689178 204.435791,172.769409 200.194992,173.783859 
	C195.841858,174.825165 191.918091,173.695038 189.178909,169.895798 
	C188.323685,168.709625 187.850510,167.248016 187.143204,165.515366 
z"/>
<path fill="#F4F7F7" opacity="1.000000" stroke="none" 
	d="
M309.509003,172.853928 
	C303.268738,174.961151 299.191711,174.072617 296.216400,170.037827 
	C293.358307,166.161987 293.132782,162.058029 295.820435,158.018143 
	C298.687500,153.708603 303.163727,152.223114 307.543518,154.200531 
	C310.466553,155.520248 313.398438,158.651321 314.540985,161.651627 
	C316.225006,166.073990 313.765839,169.973602 309.509003,172.853928 
z"/>
<path fill="#EFF5F4" opacity="1.000000" stroke="none" 
	d="
M328.837677,257.951019 
	C328.062592,258.314514 327.208374,258.350708 326.138947,258.204590 
	C326.708160,257.707031 327.492615,257.391754 328.587830,257.020691 
	C328.851959,257.184509 328.805267,257.404114 328.837677,257.951019 
z"/>
<path fill="#EFF5F4" opacity="1.000000" stroke="none" 
	d="
M335.299683,209.549026 
	C334.733734,209.387909 334.014374,208.944977 333.170227,208.192871 
	C333.745728,208.344864 334.445984,208.806046 335.299683,209.549026 
z"/>
<path fill="#11968A" opacity="1.000000" stroke="none" 
	d="
M207.271103,226.024063 
	C209.532303,238.550583 203.282211,249.012817 191.910919,252.358780 
	C181.304138,255.479797 169.941742,250.063217 165.569199,239.801407 
	C161.213196,229.578415 165.024597,218.134323 175.339050,212.345871 
	C175.339050,215.293365 175.153473,217.871078 175.379791,220.412094 
	C175.783813,224.948517 178.851517,227.886230 182.675873,227.711029 
	C186.526596,227.534607 189.116623,224.472382 189.222488,219.832291 
	C189.294266,216.686447 189.236191,213.537659 189.236191,210.420425 
	C196.967270,209.792877 204.302856,216.158646 207.271103,226.024063 
z"/>
<path fill="#12968A" opacity="1.000000" stroke="none" 
	d="
M225.707489,257.616577 
	C216.888199,257.987915 207.917435,258.032349 198.482391,258.015930 
	C208.562439,251.953690 214.784103,243.230759 215.027618,230.702896 
	C218.751877,228.590118 219.205124,231.575165 219.750549,233.829681 
	C221.260941,240.072906 222.549927,246.369400 224.003830,252.626846 
	C224.372971,254.215561 225.030807,255.737183 225.707489,257.616577 
z"/>
<path fill="#11968A" opacity="1.000000" stroke="none" 
	d="
M326.672729,219.254669 
	C326.675995,216.857147 326.675995,214.877151 326.675995,212.825012 
	C334.459808,214.716248 340.220306,226.549698 337.476746,236.804306 
	C334.471039,248.038620 323.738861,254.851364 312.238922,252.961807 
	C301.153503,251.140366 293.168823,240.684418 294.041412,229.132156 
	C294.788666,219.239395 303.367340,210.313217 312.788696,210.088943 
	C312.788696,212.890503 312.773468,215.687057 312.791870,218.483383 
	C312.829651,224.216385 314.891174,227.228607 319.021454,227.623505 
	C323.071106,228.010712 325.605438,225.375854 326.672729,219.254669 
z"/>
<path fill="#12968A" opacity="1.000000" stroke="none" 
	d="
M303.820618,257.710876 
	C295.293640,258.071198 286.586639,258.142273 277.411987,258.283386 
	C278.852173,249.735916 280.676025,241.097900 282.764923,232.524445 
	C283.053864,231.338531 284.653473,230.471970 286.197815,229.752090 
	C287.418671,242.358322 292.535736,251.782318 303.820618,257.710876 
z"/>
<path fill="#EFF5F4" opacity="1.000000" stroke="none" 
	d="
M305.804047,258.050598 
	C305.799408,258.125977 305.486969,258.214142 305.028748,258.213196 
	C305.087402,258.103882 305.291809,258.083649 305.804047,258.050598 
z"/>
<path fill="#0E9489" opacity="1.000000" stroke="none" 
	d="
M343.111206,290.722473 
	C347.431763,290.702423 351.262756,290.667236 355.093048,290.703674 
	C365.721588,290.804779 371.145782,294.872314 373.202850,305.412933 
	C374.105469,310.038025 374.187469,315.095917 373.364716,319.730530 
	C371.425323,330.654907 365.714752,334.971741 354.648010,335.008057 
	C350.196259,335.022675 345.744415,335.010468 340.873962,335.010468 
	C340.873962,320.561859 340.850555,306.615753 340.948059,292.670502 
	C340.952576,292.023132 342.038849,291.383331 343.111206,290.722473 
z"/>
<path fill="#11968A" opacity="1.000000" stroke="none" 
	d="
M264.627197,294.442444 
	C269.324890,304.993500 264.900116,311.932648 253.897293,311.938782 
	C250.102631,311.940918 246.307968,311.939117 242.228653,311.939117 
	C242.228653,304.810883 242.228653,298.081390 242.228653,290.893951 
	C248.053406,290.893951 253.818573,290.654572 259.541290,291.042114 
	C261.223633,291.156036 262.785675,293.046753 264.627197,294.442444 
z"/>
<path fill="#15988C" opacity="1.000000" stroke="none" 
	d="
M247.670624,157.094910 
	C251.350296,156.050308 253.900986,155.784683 255.060074,160.401550 
	C255.811386,163.394211 258.735382,164.611038 262.267792,162.809952 
	C263.534088,162.164322 266.172302,162.480682 267.119995,163.425552 
	C268.066833,164.369537 268.283112,166.866425 267.764526,168.301178 
	C266.391541,172.099823 267.353760,174.196548 271.208527,175.994507 
	C272.527313,176.609619 273.833130,178.650040 273.905182,180.100830 
	C273.963409,181.272415 272.402832,183.122391 271.135254,183.649841 
	C267.325714,185.235092 266.353333,187.456238 267.733368,191.259186 
	C268.253174,192.691605 268.049347,195.183929 267.107819,196.125137 
	C266.165222,197.067444 263.672516,197.274155 262.240784,196.753693 
	C258.490143,195.390244 256.201630,196.386063 254.623749,200.147064 
	C254.091599,201.415451 252.253983,202.980240 251.085617,202.923157 
	C249.636749,202.852386 247.588806,201.547897 246.983017,200.231674 
	C245.116241,196.175720 243.316635,195.462326 238.883057,197.126495 
	C237.623077,197.599442 235.315460,197.108170 234.405289,196.169708 
	C233.504715,195.241180 233.131516,192.941742 233.628174,191.675659 
	C235.237320,187.573776 234.357727,185.432556 230.348938,183.722855 
	C229.074203,183.179199 227.642197,181.343658 227.593292,180.049713 
	C227.543579,178.734879 228.803711,176.695923 230.026154,176.128387 
	C234.501007,174.050797 235.200424,172.384262 233.320297,167.852402 
	C232.848816,166.715988 233.211334,164.659286 234.009537,163.725845 
	C234.872467,162.716690 236.929321,161.760834 238.059250,162.107132 
	C244.605789,164.113358 245.371658,163.840256 247.670624,157.094910 
M258.307861,186.764801 
	C262.306641,180.740219 261.913422,175.586578 257.161255,171.737427 
	C253.099136,168.447189 246.704391,168.971649 243.137558,172.887589 
	C239.853348,176.493256 239.670197,182.465286 242.729141,186.204559 
	C246.604858,190.942200 251.743469,191.321609 258.307861,186.764801 
z"/>
<path fill="#E3F0EF" opacity="1.000000" stroke="none" 
	d="
M258.033600,187.039551 
	C251.743469,191.321609 246.604858,190.942200 242.729141,186.204559 
	C239.670197,182.465286 239.853348,176.493256 243.137558,172.887589 
	C246.704391,168.971649 253.099136,168.447189 257.161255,171.737427 
	C261.913422,175.586578 262.306641,180.740219 258.033600,187.039551 
M252.953705,172.990295 
	C248.852280,172.166183 245.558746,173.321075 244.099396,177.409439 
	C242.929840,180.685883 243.864838,183.682877 246.874512,185.716415 
	C250.070480,187.875793 254.419144,186.985519 256.580963,183.826675 
	C259.061981,180.201416 258.157227,176.838654 252.953705,172.990295 
z"/>
<path fill="#15988C" opacity="1.000000" stroke="none" 
	d="
M253.342087,173.111053 
	C258.157227,176.838654 259.061981,180.201416 256.580963,183.826675 
	C254.419144,186.985519 250.070480,187.875793 246.874512,185.716415 
	C243.864838,183.682877 242.929840,180.685883 244.099396,177.409439 
	C245.558746,173.321075 248.852280,172.166183 253.342087,173.111053 
z"/>
</svg>